<svg width="31" height="30" viewBox="0 0 31 30" fill="none" xmlns="http://www.w3.org/2000/svg">
<path d="M15.922 9.99787C13.1677 9.99787 10.9199 12.2456 10.9199 15C10.9199 17.7544 13.1677 20.0021 15.922 20.0021C18.6764 20.0021 20.9242 17.7544 20.9242 15C20.9242 12.2456 18.6764 9.99787 15.922 9.99787ZM30.9247 15C30.9247 12.9286 30.9434 10.876 30.8271 8.80832C30.7108 6.40669 30.1629 4.27525 28.4067 2.51907C26.6468 0.759128 24.5191 0.215011 22.1175 0.098682C20.0461 -0.0176466 17.9934 0.00111617 15.9258 0.00111617C13.8544 0.00111617 11.8017 -0.0176466 9.7341 0.098682C7.33248 0.215011 5.20104 0.762881 3.44485 2.51907C1.68491 4.27901 1.14079 6.40669 1.02446 8.80832C0.908135 10.8797 0.926897 12.9324 0.926897 15C0.926897 17.0676 0.908135 19.124 1.02446 21.1917C1.14079 23.5933 1.68866 25.7247 3.44485 27.4809C5.20479 29.2409 7.33248 29.785 9.7341 29.9013C11.8055 30.0176 13.8581 29.9989 15.9258 29.9989C17.9972 29.9989 20.0498 30.0176 22.1175 29.9013C24.5191 29.785 26.6505 29.2371 28.4067 27.4809C30.1667 25.721 30.7108 23.5933 30.8271 21.1917C30.9472 19.124 30.9247 17.0714 30.9247 15ZM15.922 22.6964C11.6629 22.6964 8.22558 19.2591 8.22558 15C8.22558 10.7409 11.6629 7.30355 15.922 7.30355C20.1812 7.30355 23.6185 10.7409 23.6185 15C23.6185 19.2591 20.1812 22.6964 15.922 22.6964ZM23.9337 8.7858C22.9393 8.7858 22.1362 7.98276 22.1362 6.98834C22.1362 5.99392 22.9393 5.19087 23.9337 5.19087C24.9281 5.19087 25.7312 5.99392 25.7312 6.98834C25.7315 7.22447 25.6852 7.45834 25.5949 7.67655C25.5047 7.89476 25.3723 8.09303 25.2054 8.26C25.0384 8.42697 24.8401 8.55936 24.6219 8.64958C24.4037 8.73981 24.1698 8.7861 23.9337 8.7858Z" fill="white" fill-opacity="0.7"/>
</svg>
