<svg width="40" height="30" viewBox="0 0 40 30" fill="none" xmlns="http://www.w3.org/2000/svg">
<path d="M33.8602 2.48809C31.3104 1.33816 28.5773 0.488218 25.7191 0.00491662C25.6937 3.01345e-05 25.6673 0.00317916 25.6437 0.0139283C25.6201 0.0246773 25.6005 0.0424947 25.5875 0.0649127C25.2375 0.679872 24.8475 1.48149 24.5742 2.11478C21.5429 1.66187 18.4611 1.66187 15.4298 2.11478C15.1254 1.41293 14.7821 0.728576 14.4015 0.0649127C14.3886 0.0422187 14.3691 0.0239983 14.3456 0.012683C14.3221 0.00136768 14.2956 -0.00250453 14.2699 0.00158335C11.4134 0.484885 8.68023 1.33483 6.12873 2.48642C6.10678 2.49563 6.08817 2.51133 6.0754 2.53142C0.889076 10.1559 -0.532497 17.5921 0.16579 24.9349C0.167733 24.9529 0.173316 24.9703 0.182197 24.9861C0.191079 25.0018 0.203074 25.0156 0.217453 25.0266C3.24458 27.2305 6.62093 28.9094 10.2051 29.9929C10.2301 30.0006 10.2568 30.0006 10.2818 29.9929C10.3068 29.9852 10.3288 29.9701 10.3451 29.9496C11.1164 28.9181 11.7999 27.8238 12.3883 26.6782C12.3965 26.6625 12.4012 26.6453 12.4021 26.6276C12.4031 26.61 12.4002 26.5923 12.3937 26.5759C12.3872 26.5595 12.3773 26.5446 12.3646 26.5324C12.3519 26.5201 12.3367 26.5107 12.32 26.5048C11.2434 26.0994 10.2003 25.6102 9.2002 25.0416C9.18223 25.0313 9.16708 25.0168 9.15613 24.9992C9.14517 24.9817 9.13874 24.9617 9.13742 24.941C9.1361 24.9204 9.13993 24.8997 9.14856 24.8809C9.15718 24.8621 9.17035 24.8457 9.18686 24.8333C9.39685 24.6783 9.60684 24.5166 9.80682 24.355C9.82482 24.3404 9.84651 24.3312 9.86946 24.3282C9.89241 24.3253 9.91573 24.3288 9.93681 24.3383C16.4814 27.2781 23.5693 27.2781 30.0372 24.3383C30.0583 24.3282 30.0819 24.3243 30.1051 24.3269C30.1284 24.3296 30.1505 24.3387 30.1688 24.3533C30.3688 24.5166 30.5771 24.6783 30.7888 24.8333C30.8055 24.8455 30.8188 24.8616 30.8277 24.8803C30.8366 24.8989 30.8408 24.9195 30.8398 24.9401C30.8388 24.9608 30.8327 24.9808 30.8221 24.9986C30.8114 25.0163 30.7965 25.0311 30.7788 25.0416C29.7822 25.6149 28.7456 26.0999 27.6573 26.5032C27.6406 26.5092 27.6254 26.5188 27.6127 26.5312C27.5999 26.5436 27.59 26.5586 27.5835 26.5752C27.5771 26.5918 27.5742 26.6095 27.5752 26.6273C27.5761 26.645 27.5808 26.6624 27.589 26.6782C28.1889 27.8231 28.8756 28.913 29.6305 29.9479C29.6462 29.9692 29.6681 29.9851 29.6931 29.9934C29.7182 30.0018 29.7452 30.0022 29.7705 29.9946C33.3609 28.9141 36.7427 27.2344 39.7732 25.0266C39.788 25.0163 39.8004 25.0029 39.8096 24.9874C39.8188 24.9719 39.8245 24.9545 39.8265 24.9366C40.6598 16.4472 38.4299 9.07099 33.9119 2.53475C33.9008 2.51351 33.8825 2.49695 33.8602 2.48809ZM13.3666 20.4636C11.3967 20.4636 9.77182 18.682 9.77182 16.4972C9.77182 14.3106 11.3651 12.5308 13.3666 12.5308C15.3831 12.5308 16.993 14.3256 16.9614 16.4972C16.9614 18.6837 15.3681 20.4636 13.3666 20.4636ZM26.6574 20.4636C24.6858 20.4636 23.0626 18.682 23.0626 16.4972C23.0626 14.3106 24.6542 12.5308 26.6574 12.5308C28.6739 12.5308 30.2838 14.3256 30.2521 16.4972C30.2521 18.6837 28.6756 20.4636 26.6574 20.4636Z" fill="white" fill-opacity="0.7"/>
</svg>
