<svg width="38" height="30" viewBox="0 0 38 30" fill="none" xmlns="http://www.w3.org/2000/svg">
<path d="M37.9255 3.56363C36.5675 4.14942 35.0897 4.57102 33.5675 4.73522C35.1479 3.79633 36.3314 2.31303 36.8959 0.563627C35.413 1.44583 33.7883 2.06444 32.0942 2.39203C31.3861 1.63505 30.5297 1.032 29.5784 0.620465C28.627 0.208931 27.6011 -0.00227123 26.5646 1.84189e-05C22.3708 1.84189e-05 18.998 3.39943 18.998 7.57102C18.998 8.15682 19.069 8.74262 19.1844 9.30622C12.9048 8.97782 7.30426 5.97783 3.58089 1.38463C2.90245 2.54343 2.54692 3.86285 2.5513 5.20564C2.5513 7.83285 3.8871 10.1494 5.92408 11.5118C4.72365 11.4646 3.55134 11.1346 2.50248 10.5488V10.642C2.50248 14.321 5.10307 17.3698 8.56905 18.071C7.91827 18.2401 7.24881 18.3265 6.57645 18.3284C6.08384 18.3284 5.61787 18.2796 5.14745 18.213C6.10603 21.213 8.89745 23.392 12.2214 23.463C9.62082 25.5 6.36343 26.6982 2.82645 26.6982C2.19183 26.6982 1.60603 26.676 0.998047 26.605C4.35307 28.7574 8.33384 30 12.6208 30C26.538 30 34.1533 18.4704 34.1533 8.46303C34.1533 8.13463 34.1533 7.80623 34.1312 7.47782C35.6045 6.39942 36.8959 5.06362 37.9255 3.56363Z" fill="white" fill-opacity="0.7"/>
</svg>
